/vscmnt/brussel_pixiu_data/_data_brussel/112/vsc11236/PredSimResults/SUBJ07opt3D/expIG/worker_15.mot
version=1
nRows=6
nColumns=50
inDegrees=yes
endheader
                time	         pelvis_tilt	         pelvis_list	     pelvis_rotation	           pelvis_tx	           pelvis_ty	           pelvis_tz	       hip_flexion_r	     hip_adduction_r	      hip_rotation_r	        knee_angle_r	       ankle_angle_r	         mtp_angle_r	       hip_flexion_l	     hip_adduction_l	      hip_rotation_l	        knee_angle_l	       ankle_angle_l	         mtp_angle_l	    lumbar_extension	      lumbar_bending	     lumbar_rotation	 ercspn_r/activation	 intobl_r/activation	 extobl_r/activation	    abd_r/activation	    add_r/activation	hamstrings_r/activation	bifemsh_r/activation	glut_max_r/activation	iliopsoas_r/activation	rect_fem_r/activation	  vasti_r/activation	gastroc_r/activation	 soleus_r/activation	tib_ant_r/activation	 ercspn_l/activation	 intobl_l/activation	 extobl_l/activation	    abd_l/activation	    add_l/activation	hamstrings_l/activation	bifemsh_l/activation	glut_max_l/activation	iliopsoas_l/activation	rect_fem_l/activation	  vasti_l/activation	gastroc_l/activation	 soleus_l/activation	tib_ant_l/activation	
          0.52972024	         -9.66068039	          0.07494351	        -14.24809881	          1.05944047	          0.81593631	          0.01667708	         -6.09825912	         -0.47807735	         12.46996884	        -24.16625563	          8.72448557	         38.02687543	         42.23732201	         -7.52403922	         -5.89971113	        -12.78713936	         -0.87151068	          0.27165295	        -12.41021182	          2.43751923	         -0.10706573	          0.16631732	          0.00999999	          0.00999999	          0.04709387	          0.05853558	          0.05827388	          0.43954527	          0.02313124	          0.00999999	          0.00999999	          0.07115610	          0.15675966	          0.30892973	          0.01916354	          0.17310987	          0.08345988	          0.00999999	          0.00999999	          0.09789993	          0.07431279	          0.21339255	          0.15498244	          0.07328376	          0.02082178	          0.00999999	          0.02716647	          0.01067742	          0.36770092	
          0.54031464	         -9.53586114	          0.05952180	        -14.48791016	          1.08573985	          0.81585970	          0.01611260	         -7.78427868	         -1.00846145	         12.11215839	        -23.85901256	          5.61720920	         38.94447441	         42.33605645	         -7.45981261	         -6.09097516	        -16.53278052	         -0.95475180	          0.23145639	        -12.05375500	          2.19550310	          0.10668409	          0.15092157	          0.00999999	          0.00999999	          0.04002629	          0.09609671	          0.04952847	          0.37358083	          0.01965983	          0.13411014	          0.00999999	          0.06047740	          0.13323406	          0.26256732	          0.01628758	          0.14850299	          0.07093469	          0.00999999	          0.00999999	          0.10813992	          0.06952431	          0.18136782	          0.24010133	          0.06228576	          0.01769696	          0.00999999	          0.02308948	          0.00999999	          0.42793403	
          0.55090905	         -9.40679884	          0.00454829	        -14.66902388	          1.11194304	          0.81580196	          0.01548547	         -9.10336950	         -1.41138840	         11.74944906	        -24.22344424	          2.63013970	         38.98374880	         42.39933516	         -7.39997701	         -6.23802298	        -20.22741081	         -0.93428781	          0.20670911	        -11.72919406	          1.98789545	          0.29970481	          0.18124454	          0.00999999	          0.00999999	          0.03401937	          0.14621085	          0.04209552	          0.31751596	          0.01670940	          0.39991276	          0.00999999	          0.05140130	          0.11323906	          0.22316272	          0.01384324	          0.17288510	          0.06028922	          0.00999999	          0.05666306	          0.18250301	          0.06763458	          0.15414917	          0.33476564	          0.05293827	          0.01504110	          0.00999999	          0.01962434	          0.00999999	          0.45578532	
          0.56150345	         -9.27267159	         -0.07777827	        -14.79447235	          1.13784067	          0.81592775	          0.01482112	         -9.90171636	         -1.66402619	         11.46576072	        -25.47093537	         -0.35671099	         38.28622636	         42.45318461	         -7.32473580	         -6.30984425	        -23.91281407	         -0.58723573	          0.16468890	        -11.45567479	          1.79243852	          0.46690812	          0.25726922	          0.00999999	          0.00999999	          0.02891394	          0.18111795	          0.03577806	          0.26986498	          0.01420175	          0.60315482	          0.00999999	          0.04368729	          0.09624479	          0.18967173	          0.01176572	          0.20720834	          0.05124136	          0.00999999	          0.12599154	          0.25418513	          0.05748437	          0.13101535	          0.43924126	          0.04499359	          0.01278382	          0.00999999	          0.01667923	          0.00999999	          0.38738366	
          0.57209786	         -9.12839678	         -0.16013916	        -14.86476577	          1.16333532	          0.81641338	          0.01412612	        -10.08700237	         -1.77458269	         11.32186671	        -27.67541331	         -3.51929208	         36.93496754	         42.48316928	         -7.17619525	         -6.20499155	        -27.62659728	          0.50249934	          0.20036044	        -11.22663652	          1.57987404	          0.60392692	          0.37980554	          0.00999999	          0.00999999	          0.02457470	          0.16295676	          0.03040870	          0.22936518	          0.01207043	          0.57971996	          0.02254731	          0.03713095	          0.08180092	          0.16120688	          0.00999999	          0.24346697	          0.04355135	          0.00999999	          0.20822519	          0.29974756	          0.04885745	          0.11135331	          0.50122720	          0.03824121	          0.01086530	          0.00999999	          0.01417611	          0.10208602	          0.32924734	
          0.58269226	         -8.97066451	         -0.22595433	        -14.88366940	          1.18847117	          0.81737159	          0.01341641	         -9.70830292	         -1.76785468	         11.31213320	        -30.62869247	         -7.07929559	         34.96210990	         42.43375672	         -6.93555061	         -5.96005176	        -31.32039108	          2.60121377	          0.57218403	        -11.00929845	          1.34303484	          0.71960770	          0.46962521	          0.00999999	          0.00999999	          0.02088667	          0.13850114	          0.02584513	          0.19494337	          0.01025897	          0.49271890	          0.01916354	          0.03155855	          0.06952470	          0.13701388	          0.00999999	          0.25025572	          0.03701541	          0.00999999	          0.25137339	          0.32145714	          0.04152520	          0.09464204	          0.48563216	          0.03250219	          0.00999999	          0.01929725	          0.01204864	          0.15317899	          0.27983578	
